<?xml version="1.0" encoding="UTF-8"?>
<svg id="Layer_2" data-name="Layer 2" xmlns="http://www.w3.org/2000/svg" viewBox="0 0 23.13 23.13">
  <defs>
    <style>
      .cls-1 {
        fill: #fff;
      }

      .cls-2 {
        fill: #0a563a;
      }

      .cls-3 {
        fill: #073626;
      }
    </style>
  </defs>
  <g id="OBJECTS">
    <g>
      <g>
        <path class="cls-3" d="M17.1,11.09c-3.29-1.99-7.74-4.29-13.05-6.06-.99,1.12-1.75,2.44-2.21,3.9,3.68,1.82,8.76,4.38,12.93,6.49,.98-1.54,1.74-3.01,2.33-4.33Z"/>
        <path class="cls-3" d="M17.57,10.94c1.09,.67,2.05,1.3,2.87,1.86,.22-.72,.38-1.4,.5-2.04,.12-.61,.2-1.2,.26-1.75-.74-.76-1.48-1.47-2.21-2.14-.24,.89-.56,1.89-.97,2.97-.14,.35-.28,.72-.45,1.1Z"/>
        <path class="cls-3" d="M15.11,15.6c1.23,.62,2.37,1.2,3.36,1.71,.84-1.42,1.44-2.82,1.86-4.12-.82-.57-1.79-1.21-2.9-1.89-.59,1.32-1.34,2.78-2.32,4.31Z"/>
        <path class="cls-3" d="M12.51,1.34c1.84,1.21,4,2.81,6.28,4.85,.23-.92,.37-1.69,.47-2.29-1.83-1.54-4.18-2.5-6.74-2.56Z"/>
        <path class="cls-3" d="M20.65,13.41c-.42,1.29-1.02,2.67-1.84,4.07,.91,.46,1.68,.85,2.25,1.15,.78-1.08,1.37-2.31,1.72-3.63-.47-.37-1.18-.91-2.13-1.58Z"/>
        <path class="cls-3" d="M16.47,20.67c.66,.16,1.34,.31,2.04,.46,.87-.62,1.65-1.36,2.3-2.2-.57-.29-1.33-.68-2.21-1.13-.59,.96-1.3,1.92-2.13,2.87Z"/>
        <path class="cls-3" d="M14.56,15.74c-4.13-2.1-9.16-4.63-12.83-6.44-.26,.93-.4,1.91-.4,2.93,0,.56,.04,1.11,.12,1.65,1.59,1.29,4.9,3.55,10.4,5.44,1.04-1.2,1.94-2.41,2.71-3.58Z"/>
        <path class="cls-3" d="M21.32,10.83c-.13,.69-.31,1.43-.55,2.21,.91,.64,1.61,1.17,2.1,1.55,.17-.76,.26-1.55,.26-2.35,0-.41-.02-.82-.07-1.22-.5-.57-1.01-1.12-1.52-1.64-.06,.47-.13,.96-.23,1.46Z"/>
        <path class="cls-3" d="M11.59,19.62c-5.1-1.77-8.32-3.86-10.04-5.19,.78,3.79,3.52,6.85,7.12,8.09,1.08-.95,2.05-1.93,2.92-2.91Z"/>
        <path class="cls-3" d="M15.77,20.88c-1.36-.35-2.63-.73-3.8-1.12-.86,.98-1.82,1.95-2.89,2.91,1,.3,2.05,.46,3.14,.46,.39,0,.78-.02,1.16-.06,.89-.71,1.68-1.44,2.39-2.19Z"/>
        <path class="cls-3" d="M17.25,10.75c.15-.36,.29-.7,.42-1.03,.44-1.14,.77-2.19,1.01-3.12-2.51-2.27-4.9-3.99-6.85-5.25-2.95,.11-5.6,1.39-7.5,3.39,5.24,1.76,9.65,4.04,12.92,6.02Z"/>
        <path class="cls-3" d="M18.27,17.63c-1-.51-2.14-1.09-3.37-1.71-.76,1.16-1.63,2.34-2.66,3.54,1.17,.39,2.45,.77,3.82,1.11,.87-.97,1.6-1.95,2.21-2.94Z"/>
        <path class="cls-3" d="M14.11,22.96c1.44-.25,2.79-.79,3.98-1.54-.65-.14-1.29-.28-1.9-.44-.62,.67-1.31,1.34-2.08,1.98Z"/>
        <path class="cls-3" d="M19.1,6.47c.71,.64,1.43,1.33,2.15,2.06,.07-.86,.09-1.64,.07-2.31-.49-.75-1.08-1.43-1.73-2.03-.1,.61-.25,1.38-.48,2.28Z"/>
        <path class="cls-3" d="M21.59,8.88c.45,.47,.91,.95,1.37,1.46-.22-1.25-.65-2.43-1.26-3.5,0,.62-.03,1.3-.11,2.04Z"/>
      </g>
      <path class="cls-2" d="M2.71,17.73c.98,1.7,.57,3.46,.57,3.46,0,0,1.76-.41,3.46,.57,.1,.06,.2,.12,.3,.19L15.05,12.23l-4.25-3.34,6.39-6.54h0C15.92,1.36,15.51,0,15.51,0c0,0-1.32,1.24-3.28,1.24S8.95,0,8.95,0c0,0-.52,1.73-2.22,2.71-1.7,.98-3.46,.57-3.46,.57,0,0,.41,1.76-.57,3.46C1.73,8.43,0,8.95,0,8.95c0,0,1.24,1.32,1.24,3.28S0,15.51,0,15.51c0,0,1.73,.52,2.71,2.22Z"/>
      <path class="cls-1" d="M18.81,11.86c0-.06-.05-.12-.1-.14l-5.03-2.55L18.18,1.59c.05-.08,.03-.18-.04-.24-.07-.06-.17-.06-.24,0L7.7,9.25c-.05,.04-.08,.1-.07,.17s.04,.12,.1,.15l4.84,2.52-6.1,10.23c-.05,.08-.03,.18,.04,.24,.03,.03,.08,.04,.12,.04s.09-.02,.12-.05l11.98-10.53s.07-.1,.06-.16Z"/>
    </g>
  </g>
</svg>